<svg id="Layer_1" data-name="Layer 1" xmlns="http://www.w3.org/2000/svg" viewBox="0 0 56 56"><defs><style>.cls-1{fill:#fff;}</style></defs><title>Artboard 1</title><path class="cls-1" d="M28,0H23.33A17.52,17.52,0,0,0,5.83,17.5v2L.14,29.77a1.22,1.22,0,0,0-.14.56v.2a3.39,3.39,0,0,0,3.5,3.3,4.2,4.2,0,0,1,2.33.88v4.06a4.55,4.55,0,0,0,4.67,4.4h7.2a3.41,3.41,0,0,0,3.3-3.5v-7H18.67v7.21a1.07,1.07,0,0,1-1.17.95h-7a1.31,1.31,0,0,1-.28,0A2.19,2.19,0,0,1,8.17,38.5V34.15a1.17,1.17,0,0,0-.4-.87A6.73,6.73,0,0,0,3.5,31.5h0a1,1,0,0,1-1.12-.91L8,20.32a1.09,1.09,0,0,0,.15-.56V17.5A15.18,15.18,0,0,1,23.33,2.33H28.2a1.08,1.08,0,0,1,1,1.17V9.33H31.5v-6A3.41,3.41,0,0,0,28,0Z"/><path class="cls-1" d="M47.83,35H35v2.33H48a1.07,1.07,0,0,1,1,1.17v2.21c-.17.69-1.29,4.79-4.67,4.79a1.16,1.16,0,0,0-1.16,1.17v7H21v-3.5H18.67v4.66A1.16,1.16,0,0,0,19.83,56h24.5a1.17,1.17,0,0,0,1.17-1.17v-7.1c3.65-.69,5.39-4.54,5.81-6.66a1,1,0,0,0,0-.24V38.5a.67.67,0,0,0,0-.2A3.4,3.4,0,0,0,47.83,35Z"/><path class="cls-1" d="M54.83,14H51.89a9.1,9.1,0,0,0-.42-1l2.08-2.08a1.16,1.16,0,0,0,0-1.65L50.25,6A1.16,1.16,0,0,0,48.6,6L46.52,8a9.1,9.1,0,0,0-1-.42V4.67A1.17,1.17,0,0,0,44.33,3.5H39.67A1.17,1.17,0,0,0,38.5,4.67V7.61a10.14,10.14,0,0,0-1.83.85l1.19,2A7.9,7.9,0,0,1,40,9.6a1.17,1.17,0,0,0,.87-1.13V5.83h2.34V8.47A1.16,1.16,0,0,0,44,9.6a8.39,8.39,0,0,1,2.1.87,1.17,1.17,0,0,0,1.42-.18l1.86-1.86,1.66,1.64-1.87,1.87A1.17,1.17,0,0,0,49,13.36a8.24,8.24,0,0,1,.87,2.1,1.17,1.17,0,0,0,1.13.87h2.64v2.34H51a1.17,1.17,0,0,0-1.13.87,8,8,0,0,1-.87,2.1,1.17,1.17,0,0,0,.18,1.42l1.87,1.87-1.65,1.65-1.87-1.87a1.17,1.17,0,0,0-1.42-.18,7.9,7.9,0,0,1-2.1.87,1.17,1.17,0,0,0-.87,1.13v2.64H40.83V26.53A1.17,1.17,0,0,0,40,25.4a7.9,7.9,0,0,1-2.1-.87,1.17,1.17,0,0,0-1.42.18l-1.87,1.87-1.65-1.65,1.87-1.87A1.17,1.17,0,0,0,35,21.64a7.9,7.9,0,0,1-.87-2.1A1.17,1.17,0,0,0,33,18.67h-3.8V21h2.94a9.1,9.1,0,0,0,.42,1L30.45,24.1a1.16,1.16,0,0,0,0,1.65l3.3,3.3a1.16,1.16,0,0,0,1.65,0L37.48,27a9.1,9.1,0,0,0,1,.42v2.94a1.17,1.17,0,0,0,1.17,1.17h4.66a1.17,1.17,0,0,0,1.17-1.17V27.39a9.1,9.1,0,0,0,1-.42l2.08,2.08a1.16,1.16,0,0,0,1.65,0l3.3-3.3a1.16,1.16,0,0,0,0-1.65L51.47,22a9.1,9.1,0,0,0,.42-1h2.94A1.17,1.17,0,0,0,56,19.83V15.17A1.17,1.17,0,0,0,54.83,14Z"/><path class="cls-1" d="M42,12.83a4.67,4.67,0,1,0,4.67,4.67A4.67,4.67,0,0,0,42,12.83Zm0,7a2.33,2.33,0,1,1,2.33-2.33A2.33,2.33,0,0,1,42,19.83Z"/><path class="cls-1" d="M17.5,18.67v1.16H14V18.67H11.67v1.16a.17.17,0,0,0,0,.1A2.29,2.29,0,0,0,14,22.17h3.6a2.28,2.28,0,0,0,2.23-2.34V18.67Z"/><path class="cls-1" d="M32.67,32.67a3.5,3.5,0,1,0,3.5,3.5A3.49,3.49,0,0,0,32.67,32.67Zm0,4.66a1.17,1.17,0,1,1,1.16-1.16A1.16,1.16,0,0,1,32.67,37.33Z"/><path class="cls-1" d="M19.83,26.83a3.5,3.5,0,1,0,3.5,3.5A3.5,3.5,0,0,0,19.83,26.83Zm0,4.67A1.17,1.17,0,1,1,21,30.33,1.16,1.16,0,0,1,19.83,31.5Z"/><path class="cls-1" d="M30.33,8.17a3.5,3.5,0,1,0,3.5,3.5A3.5,3.5,0,0,0,30.33,8.17Zm0,4.66a1.17,1.17,0,1,1,1.17-1.16A1.16,1.16,0,0,1,30.33,12.83Z"/><path class="cls-1" d="M24.5,18.67h2.33V21H24.5Z"/><path class="cls-1" d="M24.5,23.33h2.33v2.34H24.5Z"/><path class="cls-1" d="M18.67,45.5H21v2.33H18.67Z"/></svg>